<svg xmlns="http://www.w3.org/2000/svg" width="144" height="36" viewBox="0 0 144 36">
    <defs>
        <linearGradient id="a" x1="99.805%" x2=".195%" y1="0%" y2="100%">
            <stop offset="0%" stop-color="#98EDFE"/>
            <stop offset="100%" stop-color="#0099E6"/>
        </linearGradient>
        <linearGradient id="b" x1="14.205%" x2="85.915%" y1="12.587%" y2="85.169%">
            <stop offset="0%" stop-color="#FFF266"/>
            <stop offset="100%" stop-color="#FF9F1A"/>
        </linearGradient>
        <radialGradient id="c" cx="-28.686%" cy="129.311%" r="133.171%" fx="-28.686%" fy="129.311%" gradientTransform="scale(1 .99805) rotate(-45.375 -.284 1.294)">
            <stop offset="0%" stop-color="#0099E6"/>
            <stop offset="100%" stop-color="#DD98FF"/>
        </radialGradient>
    </defs>
    <g fill="none" fill-rule="nonzero">
        <g fill="#454C53">
            <path d="M75.812 10.326V22.68c0 .994-.804 1.8-1.796 1.8a1.798 1.798 0 0 1-1.797-1.8V10.326c-.372.11-.72.254-1.043.431a4.69 4.69 0 0 0-1.874 1.878c-.437.8-.676 1.761-.676 2.845v7.2c0 .994-.804 1.8-1.796 1.8a1.798 1.798 0 0 1-1.797-1.8v-7.377c0-1.934.367-3.48 1.056-4.771a7.19 7.19 0 0 1 2.988-2.994c1.288-.69 2.831-1.058 4.762-1.058h.353c1.931 0 3.474.368 4.762 1.058a7.19 7.19 0 0 1 2.988 2.994c.69 1.29 1.056 2.837 1.056 4.771v7.377c0 .994-.804 1.8-1.796 1.8a1.798 1.798 0 0 1-1.797-1.8v-7.2c0-1.084-.238-2.045-.676-2.845a4.69 4.69 0 0 0-1.874-1.878 5.214 5.214 0 0 0-1.043-.43zM105.275 22.68v-7.377c0-1.934.366-3.48 1.055-4.771a7.19 7.19 0 0 1 2.988-2.994c1.288-.69 2.832-1.058 4.763-1.058h.352c1.931 0 3.474.368 4.763 1.058a7.19 7.19 0 0 1 2.988 2.994c.689 1.29 1.055 2.837 1.055 4.771v7.377c0 .994-.804 1.8-1.796 1.8a1.798 1.798 0 0 1-1.797-1.8v-7.2c0-1.084-.238-2.045-.676-2.845a4.69 4.69 0 0 0-1.873-1.878c-.799-.438-1.758-.677-2.84-.677-1.082 0-2.041.239-2.84.677a4.69 4.69 0 0 0-1.873 1.878c-.438.8-.676 1.761-.676 2.845v7.2c0 .994-.805 1.8-1.797 1.8a1.798 1.798 0 0 1-1.796-1.8zM62.878 15.303v7.377a1.798 1.798 0 1 1-3.538.445 7.554 7.554 0 0 1-.506.297c-1.288.69-2.831 1.058-4.762 1.058h-.353c-1.931 0-3.474-.368-4.762-1.058a7.19 7.19 0 0 1-2.988-2.994c-.69-1.29-1.056-2.837-1.056-4.771v-.354c0-1.934.367-3.48 1.056-4.771a7.19 7.19 0 0 1 2.988-2.994c1.288-.69 2.83-1.058 4.762-1.058h.353c1.93 0 3.474.368 4.762 1.058a7.19 7.19 0 0 1 2.988 2.994c.689 1.29 1.056 2.837 1.056 4.771zm-8.983-5.223c-1.082 0-2.04.239-2.84.677a4.69 4.69 0 0 0-1.873 1.878c-.438.8-.676 1.761-.676 2.845 0 1.084.238 2.045.676 2.845a4.69 4.69 0 0 0 1.874 1.878c.798.438 1.757.677 2.84.677 1.08 0 2.04-.239 2.839-.677a4.69 4.69 0 0 0 1.874-1.878c.437-.8.676-1.761.676-2.845 0-1.084-.239-2.045-.676-2.845a4.69 4.69 0 0 0-1.874-1.878c-.799-.438-1.758-.677-2.84-.677zM93.96 6.48h.353c1.93 0 3.474.368 4.762 1.058a7.19 7.19 0 0 1 2.988 2.994c.689 1.29 1.056 2.837 1.056 4.771v.354c0 1.934-.367 3.48-1.056 4.771a7.19 7.19 0 0 1-2.988 2.994c-1.288.69-2.831 1.058-4.762 1.058h-.353c-1.931 0-3.474-.368-4.762-1.058a7.19 7.19 0 0 1-2.988-2.994c-.69-1.29-1.056-2.837-1.056-4.771v-.354c0-1.934.367-3.48 1.056-4.771a7.19 7.19 0 0 1 2.988-2.994c1.288-.69 2.831-1.058 4.762-1.058zm.176 3.6c-1.081 0-2.04.239-2.84.677a4.69 4.69 0 0 0-1.873 1.878c-.438.8-.676 1.761-.676 2.845 0 1.084.238 2.045.676 2.845a4.69 4.69 0 0 0 1.874 1.878c.798.438 1.758.677 2.84.677 1.081 0 2.04-.239 2.839-.677a4.69 4.69 0 0 0 1.874-1.878c.438-.8.676-1.761.676-2.845 0-1.084-.238-2.045-.676-2.845a4.69 4.69 0 0 0-1.874-1.878c-.798-.438-1.758-.677-2.84-.677zM134.201 6.48h.353c1.931 0 3.474.368 4.762 1.058a7.19 7.19 0 0 1 2.988 2.994c.69 1.29 1.056 2.837 1.056 4.771v.354c0 1.934-.367 3.48-1.056 4.771a7.19 7.19 0 0 1-2.988 2.994c-1.288.69-2.831 1.058-4.762 1.058h-.353c-1.93 0-3.474-.368-4.762-1.058a7.19 7.19 0 0 1-2.988-2.994c-.689-1.29-1.056-2.837-1.056-4.771v-.354c0-1.934.367-3.48 1.056-4.771a7.19 7.19 0 0 1 2.988-2.994c1.288-.69 2.831-1.058 4.762-1.058zm.177 3.6c-1.082 0-2.042.239-2.84.677a4.69 4.69 0 0 0-1.874 1.878c-.438.8-.676 1.761-.676 2.845 0 1.084.238 2.045.676 2.845a4.69 4.69 0 0 0 1.874 1.878c.798.438 1.758.677 2.84.677 1.081 0 2.04-.239 2.84-.677a4.69 4.69 0 0 0 1.873-1.878c.438-.8.676-1.761.676-2.845 0-1.084-.238-2.045-.676-2.845a4.69 4.69 0 0 0-1.874-1.878c-.798-.438-1.758-.677-2.84-.677z"/>
            <g transform="translate(126.832 25.2)">
                <ellipse cx="12.935" cy="2.16" rx="2.156" ry="2.16"/>
                <ellipse cx="4.851" cy="5.94" rx="4.851" ry="4.86"/>
            </g>
        </g>
        <path fill="url(#a)" d="M20.894 0H33.72c1.22 0 2.21.992 2.21 2.215v12.85c0 1.223-.99 2.215-2.21 2.215H20.894a2.213 2.213 0 0 1-2.21-2.215V2.215c0-1.223.99-2.215 2.21-2.215z" transform="translate(.36)"/>
        <path fill="url(#b)" d="M15.27 36C6.837 36 0 29.15 0 20.7 0 12.25 6.837 5.4 15.27 5.4c8.434 0 15.27 6.85 15.27 15.3 0 8.45-6.836 15.3-15.27 15.3zm-3.952-6.48a4.855 4.855 0 0 0 4.85-4.86 4.855 4.855 0 0 0-4.85-4.86 4.855 4.855 0 0 0-4.85 4.86 4.855 4.855 0 0 0 4.85 4.86z" transform="translate(.36)"/>
        <path fill="url(#c)" d="M30.157 17.28h-9.263a2.213 2.213 0 0 1-2.21-2.215l-.001-9.281c5.693 1.302 10.174 5.792 11.474 11.496z" transform="translate(.36)"/>
    </g>
</svg>
