<svg xmlns="http://www.w3.org/2000/svg" width="28" height="24" viewBox="0 0 28 24">
    <g fill="none" fill-rule="nonzero">
        <path fill="#5E5F62" d="M.96 22.08H4.8V24H.96zM23.04 22.08h3.84V24h-3.84z"/>
        <path fill="#B6C8CC" d="M0 0h27.84v22.08H0z"/>
        <path fill="#E3E9EC" d="M25.436 20.16H2.404a.484.484 0 0 1-.484-.484V2.404c0-.268.216-.484.484-.484h23.032c.268 0 .484.216.484.484v17.272a.484.484 0 0 1-.484.484z"/>
        <g transform="translate(11.52 5.28)">
            <circle cx="5.76" cy="5.76" r="5.28" fill="#95A5A5"/>
            <path fill="#BDC3C7" d="M5.76 11.52A5.766 5.766 0 0 1 0 5.76 5.766 5.766 0 0 1 5.76 0a5.766 5.766 0 0 1 5.76 5.76 5.766 5.766 0 0 1-5.76 5.76zm0-10.56a4.805 4.805 0 0 0-4.8 4.8c0 2.647 2.153 4.8 4.8 4.8s4.8-2.153 4.8-4.8S8.407.96 5.76.96z"/>
        </g>
        <path fill="#BDC3C7" d="M17.28 7.2a.48.48 0 0 1-.48-.48v-.96a.48.48 0 1 1 .96 0v.96a.48.48 0 0 1-.48.48zM17.28 16.8a.48.48 0 0 1-.48-.48v-.96a.48.48 0 1 1 .96 0v.96a.48.48 0 0 1-.48.48zM22.56 11.52h-.96a.48.48 0 1 1 0-.96h.96a.48.48 0 1 1 0 .96zM12.96 11.52H12a.48.48 0 1 1 0-.96h.96a.48.48 0 1 1 0 .96zM20.335 8.465a.479.479 0 0 1-.34-.82l.68-.678a.48.48 0 1 1 .678.679l-.679.679a.479.479 0 0 1-.34.14zM13.547 15.253a.479.479 0 0 1-.34-.819l.679-.679a.48.48 0 1 1 .679.68l-.68.678a.477.477 0 0 1-.338.14zM21.013 15.253a.479.479 0 0 1-.339-.14l-.679-.679a.48.48 0 1 1 .68-.679l.678.68a.48.48 0 0 1-.34.818zM14.225 8.465a.479.479 0 0 1-.34-.14l-.678-.68a.48.48 0 1 1 .679-.678l.679.679a.48.48 0 0 1-.34.82z"/>
        <circle cx="17.28" cy="11.04" r="1.44" fill="#FFF"/>
        <g fill="#B6C8CC">
            <path d="M7.2 6.24a.48.48 0 0 0-.48.48v.48a.48.48 0 1 0 0 .96v6.72a.48.48 0 1 0 0 .96v.48a.48.48 0 1 0 .96 0v-9.6a.48.48 0 0 0-.48-.48zM5.76 7.68a.48.48 0 0 0-.48-.48v-.48a.48.48 0 1 0-.96 0v9.6a.48.48 0 1 0 .96 0v-.48a.48.48 0 1 0 0-.96V8.16a.48.48 0 0 0 .48-.48z"/>
        </g>
        <g fill="#5E5F62">
            <path d="M24.96 4.8h1.44a.48.48 0 1 0 0-.96h-1.44a.48.48 0 1 0 0 .96zM26.4 5.28h-1.44a.48.48 0 1 0 0 .96h1.44a.48.48 0 1 0 0-.96zM26.4 15.84h-1.44a.48.48 0 1 0 0 .96h1.44a.48.48 0 1 0 0-.96zM26.4 17.28h-1.44a.48.48 0 1 0 0 .96h1.44a.48.48 0 1 0 0-.96z"/>
        </g>
    </g>
</svg>
